<svg xmlns="http://www.w3.org/2000/svg" width="420" height="240" viewBox="0 0 420 240" role="img" aria-label="ERP/CRM illustration">
  <defs>
    <linearGradient id="bg" x1="0" x2="1" y1="0" y2="1">
      <stop offset="0%" stop-color="#f6f3ee"/>
      <stop offset="100%" stop-color="#f0e7dd"/>
    </linearGradient>
    <linearGradient id="a" x1="0" x2="1" y1="0" y2="1">
      <stop offset="0%" stop-color="#1e6f5c"/>
      <stop offset="100%" stop-color="#b08968"/>
    </linearGradient>
  </defs>
  <rect width="420" height="240" rx="22" fill="url(#bg)"/>
  <rect x="42" y="54" width="156" height="112" rx="18" fill="rgba(30,111,92,.10)" stroke="rgba(30,111,92,.28)" stroke-width="2"/>
  <rect x="222" y="74" width="156" height="112" rx="18" fill="rgba(176,137,104,.10)" stroke="rgba(176,137,104,.28)" stroke-width="2"/>
  <path d="M198 110 C214 92, 226 88, 240 96" fill="none" stroke="url(#a)" stroke-width="6" stroke-linecap="round"/>
  <path d="M240 146 C226 158, 212 160, 198 152" fill="none" stroke="url(#a)" stroke-width="6" stroke-linecap="round"/>
  <circle cx="202" cy="110" r="7" fill="#1e6f5c"/>
  <circle cx="236" cy="96" r="7" fill="#b08968"/>
  <circle cx="236" cy="146" r="7" fill="#1e6f5c"/>
  <circle cx="202" cy="152" r="7" fill="#b08968"/>
  <path d="M62 86 H160" stroke="rgba(11,13,18,.18)" stroke-width="10" stroke-linecap="round"/>
  <path d="M62 112 H138" stroke="rgba(11,13,18,.13)" stroke-width="10" stroke-linecap="round"/>
  <path d="M242 106 H340" stroke="rgba(11,13,18,.18)" stroke-width="10" stroke-linecap="round"/>
  <path d="M242 132 H318" stroke="rgba(11,13,18,.13)" stroke-width="10" stroke-linecap="round"/>
</svg>

